<svg width="400" height="240" viewBox="0 0 400 240" xmlns="http://www.w3.org/2000/svg">
  <defs>
    <linearGradient id="fdbg" x1="0" y1="0" x2="0" y2="1">
      <stop offset="0%" stop-color="#e3f2fd"/>
      <stop offset="100%" stop-color="#90caf9"/>
    </linearGradient>
    <linearGradient id="shirt" x1="0" y1="0" x2="0" y2="1">
      <stop offset="0%" stop-color="#5c8cce"/>
      <stop offset="100%" stop-color="#3a5a8c"/>
    </linearGradient>
    <filter id="fdshadow">
      <feGaussianBlur in="SourceAlpha" stdDeviation="3"/>
      <feOffset dx="0" dy="2"/>
      <feComponentTransfer><feFuncA type="linear" slope="0.35"/></feComponentTransfer>
      <feMerge><feMergeNode/><feMergeNode in="SourceGraphic"/></feMerge>
    </filter>
  </defs>
  <rect width="400" height="240" fill="url(#fdbg)"/>
  <ellipse cx="200" cy="230" rx="140" ry="25" fill="rgba(0,0,0,0.06)"/>
  <g filter="url(#fdshadow)">
    <ellipse cx="200" cy="80" rx="40" ry="42" fill="#f4d4bc"/>
    <ellipse cx="188" cy="72" rx="4" ry="5" fill="#2c1810"/>
    <ellipse cx="212" cy="72" rx="4" ry="5" fill="#2c1810"/>
    <path d="M 195 85 Q 200 88 205 85" stroke="#c9a985" stroke-width="2" fill="none" stroke-linecap="round"/>
    <rect x="175" y="100" width="50" height="8" fill="#8b6f47"/>
    <path d="M 160 108 Q 155 150 170 180 L 165 200 L 195 200 L 190 175 Q 180 140 175 108" fill="url(#shirt)"/>
    <path d="M 240 108 Q 245 150 230 180 L 235 200 L 205 200 L 210 175 Q 220 140 225 108" fill="url(#shirt)"/>
    <rect x="185" y="115" width="30" height="50" fill="#ffffff" opacity="0.15"/>
    <circle cx="200" cy="125" r="3" fill="#ffffff" opacity="0.8"/>
    <circle cx="200" cy="135" r="3" fill="#ffffff" opacity="0.8"/>
    <circle cx="200" cy="145" r="3" fill="#ffffff" opacity="0.8"/>
    <path d="M 195 108 L 200 135 L 205 108" fill="#d32f2f" stroke="#b71c1c" stroke-width="1.5"/>
    <rect x="280" y="90" width="80" height="60" rx="4" fill="#8d6e63" opacity="0.9"/>
    <rect x="285" y="95" width="70" height="50" fill="#f5f5dc" opacity="0.9"/>
    <text x="320" y="125" font-family="Arial, sans-serif" font-size="14" fill="#5d4037" text-anchor="middle" font-weight="bold">Best</text>
    <text x="320" y="140" font-family="Arial, sans-serif" font-size="14" fill="#5d4037" text-anchor="middle" font-weight="bold">Dad</text>
    <path d="M 260 120 L 280 120" stroke="#b71c1c" stroke-width="2" stroke-linecap="round"/>
    <path d="M 260 125 L 280 120 L 280 120" stroke="#b71c1c" stroke-width="2" fill="none"/>
  </g>
  <text x="200" y="225" font-family="Arial, sans-serif" font-size="18" fill="#1976d2" text-anchor="middle" font-weight="bold">Happy Father's Day</text>
</svg>
