<svg width="400" height="240" viewBox="0 0 400 240" xmlns="http://www.w3.org/2000/svg">
  <defs>
    <linearGradient id="bstfbg" x1="0" y1="0" x2="1" y2="1">
      <stop offset="0%" stop-color="#fff9c4"/>
      <stop offset="100%" stop-color="#ffd54f"/>
    </linearGradient>
    <filter id="bstfshadow">
      <feGaussianBlur in="SourceAlpha" stdDeviation="3"/>
      <feOffset dx="0" dy="2"/>
      <feComponentTransfer><feFuncA type="linear" slope="0.3"/></feComponentTransfer>
      <feMerge><feMergeNode/><feMergeNode in="SourceGraphic"/></feMerge>
    </filter>
  </defs>
  <rect width="400" height="240" fill="url(#bstfbg)"/>
  <ellipse cx="200" cy="235" rx="150" ry="28" fill="rgba(0,0,0,0.05)"/>
  <g filter="url(#bstfshadow)">
    <ellipse cx="130" cy="80" rx="32" ry="34" fill="#f4d4bc"/>
    <ellipse cx="270" cy="80" rx="32" ry="34" fill="#d4a574"/>
    <path d="M 105 90 Q 100 135 110 175 L 105 200 L 155 200 L 150 175 Q 160 135 155 90" fill="#4caf50"/>
    <path d="M 245 90 Q 240 135 250 175 L 245 200 L 295 200 L 290 175 Q 300 135 295 90" fill="#ff9800"/>
    <ellipse cx="120" cy="75" rx="4" ry="5" fill="#2c1810"/>
    <ellipse cx="140" cy="75" rx="4" ry="5" fill="#2c1810"/>
    <path d="M 126 84 Q 130 88 134 84" stroke="#c9a985" stroke-width="2" fill="none"/>
    <ellipse cx="260" cy="75" rx="4" ry="5" fill="#2c1810"/>
    <ellipse cx="280" cy="75" rx="4" ry="5" fill="#2c1810"/>
    <path d="M 266 84 Q 270 88 274 84" stroke="#b68655" stroke-width="2" fill="none"/>
    <path d="M 100 70 Q 110 60 120 65" fill="#3e2723"/>
    <path d="M 135 65 Q 145 60 155 70" fill="#3e2723"/>
    <path d="M 240 70 Q 255 60 265 65" fill="#5d4037"/>
    <path d="M 275 65 Q 285 60 295 70" fill="#5d4037"/>
    <path d="M 155 105 Q 165 95 175 95 L 175 110 L 200 85 L 225 110 L 225 95 Q 235 95 245 105" stroke="#ff5722" stroke-width="4" fill="none" stroke-linecap="round"/>
    <circle cx="200" cy="70" r="22" fill="#ffeb3b" opacity="0.85">
      <animate attributeName="r" values="22;26;22" dur="2s" repeatCount="indefinite"/>
    </circle>
    <circle cx="185" cy="80" r="14" fill="#ff6b6b" opacity="0.7"/>
    <circle cx="215" cy="80" r="14" fill="#4ecdc4" opacity="0.7"/>
  </g>
</svg>
