<svg width="400" height="240" viewBox="0 0 400 240" xmlns="http://www.w3.org/2000/svg">
  <defs>
    <linearGradient id="bfbg" x1="0" y1="0" x2="0" y2="1">
      <stop offset="0%" stop-color="#e8eaf6"/>
      <stop offset="100%" stop-color="#9fa8da"/>
    </linearGradient>
    <linearGradient id="jacket" x1="0" y1="0" x2="0" y2="1">
      <stop offset="0%" stop-color="#455a64"/>
      <stop offset="100%" stop-color="#263238"/>
    </linearGradient>
    <filter id="bfshadow">
      <feGaussianBlur in="SourceAlpha" stdDeviation="3"/>
      <feOffset dx="0" dy="2"/>
      <feComponentTransfer><feFuncA type="linear" slope="0.35"/></feComponentTransfer>
      <feMerge><feMergeNode/><feMergeNode in="SourceGraphic"/></feMerge>
    </filter>
  </defs>
  <rect width="400" height="240" fill="url(#bfbg)"/>
  <ellipse cx="200" cy="230" rx="130" ry="25" fill="rgba(0,0,0,0.06)"/>
  <g filter="url(#bfshadow)">
    <ellipse cx="200" cy="75" rx="42" ry="44" fill="#d4a574"/>
    <path d="M 165 60 Q 175 48 190 52 Q 200 45 210 52 Q 225 48 235 60" fill="#3e2723" stroke="#2c1810" stroke-width="1.5"/>
    <ellipse cx="185" cy="70" rx="5" ry="6" fill="#2c1810"/>
    <ellipse cx="215" cy="70" rx="5" ry="6" fill="#2c1810"/>
    <path d="M 193 82 Q 200 86 207 82" stroke="#b68655" stroke-width="2" fill="none" stroke-linecap="round"/>
    <path d="M 175 88 L 195 84 L 205 84 L 225 88" stroke="#3e2723" stroke-width="2" fill="none"/>
    <path d="M 165 100 Q 160 145 170 180 L 165 200 L 235 200 L 230 180 Q 240 145 235 100" fill="url(#jacket)"/>
    <rect x="185" y="110" width="30" height="70" fill="#64b5f6" opacity="0.9"/>
    <circle cx="200" cy="125" r="4" fill="#ffffff"/>
    <circle cx="200" cy="140" r="4" fill="#ffffff"/>
    <circle cx="200" cy="155" r="4" fill="#ffffff"/>
    <path d="M 165 100 L 175 115 L 165 130" fill="#37474f" stroke="#263238" stroke-width="1"/>
    <path d="M 235 100 L 225 115 L 235 130" fill="#37474f" stroke="#263238" stroke-width="1"/>
    <circle cx="80" cy="90" r="20" fill="#ef5350" opacity="0.8">
      <animate attributeName="r" values="20;24;20" dur="2s" repeatCount="indefinite"/>
    </circle>
    <path d="M 80 75 Q 70 90 80 100 Q 90 90 80 75" fill="#ef5350"/>
  </g>
  <path d="M 100 80 Q 80 90 110 110" stroke="#ef5350" stroke-width="2" fill="none" stroke-linecap="round"/>
</svg>
