<svg width="400" height="240" viewBox="0 0 400 240" xmlns="http://www.w3.org/2000/svg">
  <defs>
    <linearGradient id="clbg" x1="0" y1="0" x2="1" y2="1">
      <stop offset="0%" stop-color="#f3e5f5"/>
      <stop offset="100%" stop-color="#ce93d8"/>
    </linearGradient>
    <linearGradient id="clsuit" x1="0" y1="0" x2="0" y2="1">
      <stop offset="0%" stop-color="#4a148c"/>
      <stop offset="100%" stop-color="#311b92"/>
    </linearGradient>
    <filter id="clshadow">
      <feGaussianBlur in="SourceAlpha" stdDeviation="3"/>
      <feOffset dx="0" dy="2"/>
      <feComponentTransfer><feFuncA type="linear" slope="0.35"/></feComponentTransfer>
      <feMerge><feMergeNode/><feMergeNode in="SourceGraphic"/></feMerge>
    </filter>
  </defs>
  <rect width="400" height="240" fill="url(#clbg)"/>
  <ellipse cx="200" cy="230" rx="135" ry="26" fill="rgba(0,0,0,0.06)"/>
  <g filter="url(#clshadow)">
    <ellipse cx="200" cy="70" rx="40" ry="42" fill="#d4a574"/>
    <path d="M 168 54 Q 178 47 188 52 Q 198 45 208 52 Q 218 47 228 54" fill="#3e2723"/>
    <ellipse cx="185" cy="66" rx="5" ry="6" fill="#2c1810"/>
    <ellipse cx="215" cy="66" rx="5" ry="6" fill="#2c1810"/>
    <path d="M 193 78 Q 200 82 207 78" stroke="#b68655" stroke-width="2" fill="none" stroke-linecap="round"/>
    <rect x="173" y="92" width="54" height="8" rx="4" fill="#ab47bc"/>
    <path d="M 165 100 Q 160 145 168 180 L 163 200 L 237 200 L 232 180 Q 240 145 235 100" fill="url(#clsuit)"/>
    <rect x="185" y="110" width="30" height="75" fill="#ffffff" opacity="0.95"/>
    <circle cx="200" cy="127" r="4" fill="#4a148c"/>
    <circle cx="200" cy="142" r="4" fill="#4a148c"/>
    <circle cx="200" cy="157" r="4" fill="#4a148c"/>
    <path d="M 165 100 L 175 113 L 165 126" fill="#6a1b9a"/>
    <path d="M 235 100 L 225 113 L 235 126" fill="#6a1b9a"/>
    <rect x="260" y="90" width="75" height="55" rx="5" fill="#7e57c2"/>
    <rect x="265" y="95" width="65" height="45" fill="#f3e5f5"/>
    <circle cx="297" cy="115" r="12" fill="#ffd54f" stroke="#f57c00" stroke-width="2"/>
    <text x="297" y="120" font-family="Arial" font-size="12" fill="#f57c00" text-anchor="middle" font-weight="bold">$</text>
    <path d="M 275 132 L 285 132" stroke="#7e57c2" stroke-width="2"/>
    <path d="M 290 132 L 305 132" stroke="#7e57c2" stroke-width="2"/>
    <path d="M 310 132 L 320 132" stroke="#7e57c2" stroke-width="2"/>
  </g>
</svg>
