<svg width="400" height="240" viewBox="0 0 400 240" xmlns="http://www.w3.org/2000/svg">
  <defs>
    <linearGradient id="bbg" x1="0" y1="0" x2="0" y2="1">
      <stop offset="0%" stop-color="#e3f2fd"/>
      <stop offset="100%" stop-color="#bbdefb"/>
    </linearGradient>
    <linearGradient id="cake1" x1="0" y1="0" x2="0" y2="1">
      <stop offset="0%" stop-color="#fff8e1"/>
      <stop offset="100%" stop-color="#ffecb3"/>
    </linearGradient>
    <linearGradient id="cake2" x1="0" y1="0" x2="0" y2="1">
      <stop offset="0%" stop-color="#ffc4d4"/>
      <stop offset="100%" stop-color="#ff8fab"/>
    </linearGradient>
    <filter id="bshadow">
      <feGaussianBlur in="SourceAlpha" stdDeviation="4"/>
      <feOffset dx="0" dy="3"/>
      <feComponentTransfer><feFuncA type="linear" slope="0.25"/></feComponentTransfer>
      <feMerge><feMergeNode/><feMergeNode in="SourceGraphic"/></feMerge>
    </filter>
  </defs>
  <rect width="400" height="240" fill="url(#bbg)"/>
  <ellipse cx="200" cy="235" rx="140" ry="30" fill="rgba(0,0,0,0.06)"/>
  <g filter="url(#bshadow)">
    <rect x="100" y="150" width="200" height="60" rx="6" fill="url(#cake1)"/>
    <rect x="120" y="120" width="160" height="30" rx="4" fill="url(#cake2)"/>
    <rect x="140" y="90" width="120" height="30" rx="4" fill="url(#cake1)"/>
    <path d="M 100 150 L 120 120 L 280 120 L 300 150 Z" fill="rgba(255,255,255,0.3)"/>
    <rect x="180" y="70" width="8" height="20" fill="#4fc3f7"/>
    <rect x="200" y="65" width="8" height="25" fill="#81c784"/>
    <rect x="220" y="70" width="8" height="20" fill="#ffb74d"/>
    <ellipse cx="184" cy="68" rx="6" ry="8" fill="#ff9800">
      <animate attributeName="ry" values="8;12;8" dur="1.5s" repeatCount="indefinite"/>
    </ellipse>
    <ellipse cx="204" cy="63" rx="6" ry="8" fill="#f44336">
      <animate attributeName="ry" values="8;12;8" dur="1.5s" begin="0.3s" repeatCount="indefinite"/>
    </ellipse>
    <ellipse cx="224" cy="68" rx="6" ry="8" fill="#ffc107">
      <animate attributeName="ry" values="8;12;8" dur="1.5s" begin="0.6s" repeatCount="indefinite"/>
    </ellipse>
    <circle cx="80" cy="100" r="20" fill="#e91e63" opacity="0.8"/>
    <circle cx="90" cy="70" r="16" fill="#9c27b0" opacity="0.75"/>
    <circle cx="320" cy="95" r="22" fill="#00bcd4" opacity="0.8"/>
    <circle cx="310" cy="65" r="18" fill="#4caf50" opacity="0.75"/>
    <path d="M 80 100 L 70 50 L 85 45" stroke="#e91e63" stroke-width="2" fill="none"/>
    <path d="M 320 95 L 335 48 L 320 42" stroke="#00bcd4" stroke-width="2" fill="none"/>
  </g>
  <text x="200" y="195" font-family="Georgia, serif" font-size="18" font-weight="bold" fill="#8d6e63" text-anchor="middle">Happy Birthday!</text>
</svg>
