<svg width="400" height="240" viewBox="0 0 400 240" xmlns="http://www.w3.org/2000/svg">
  <defs>
    <linearGradient id="frdbg" x1="0" y1="0" x2="1" y2="1">
      <stop offset="0%" stop-color="#fff3e0"/>
      <stop offset="100%" stop-color="#ffcc80"/>
    </linearGradient>
    <linearGradient id="band1" x1="0" y1="0" x2="1" y2="0">
      <stop offset="0%" stop-color="#ff6b6b"/>
      <stop offset="50%" stop-color="#ffec40"/>
      <stop offset="100%" stop-color="#4ecdc4"/>
    </linearGradient>
    <filter id="frdshadow">
      <feGaussianBlur in="SourceAlpha" stdDeviation="3"/>
      <feOffset dx="0" dy="2"/>
      <feComponentTransfer><feFuncA type="linear" slope="0.3"/></feComponentTransfer>
      <feMerge><feMergeNode/><feMergeNode in="SourceGraphic"/></feMerge>
    </filter>
  </defs>
  <rect width="400" height="240" fill="url(#frdbg)"/>
  <ellipse cx="200" cy="235" rx="150" ry="30" fill="rgba(0,0,0,0.05)"/>
  <g filter="url(#frdshadow)">
    <ellipse cx="130" cy="85" rx="32" ry="34" fill="#f9d5a7"/>
    <ellipse cx="270" cy="85" rx="32" ry="34" fill="#f9d5a7"/>
    <path d="M 105 95 Q 100 140 110 175 L 105 200 L 155 200 L 150 175 Q 160 140 155 95" fill="#42a5f5"/>
    <path d="M 245 95 Q 240 140 250 175 L 245 200 L 295 200 L 290 175 Q 300 140 295 95" fill="#66bb6a"/>
    <ellipse cx="125" cy="78" rx="4" ry="5" fill="#2c1810"/>
    <ellipse cx="265" cy="78" rx="4" ry="5" fill="#2c1810"/>
    <path d="M 118 88 Q 122 92 126 88" stroke="#d4a574" stroke-width="2" fill="none"/>
    <path d="M 258 88 Q 262 92 266 88" stroke="#d4a574" stroke-width="2" fill="none"/>
    <path d="M 160 110 L 165 110 L 167 120 L 162 120 Z" fill="#ffeb3b"/>
    <path d="M 235 110 L 240 110 L 238 120 L 233 120 Z" fill="#ffeb3b"/>
    <rect x="170" y="100" width="60" height="12" rx="6" fill="url(#band1)"/>
    <text x="200" y="109" font-family="Arial, sans-serif" font-size="9" fill="#ffffff" text-anchor="middle" font-weight="bold">FRIENDS</text>
    <path d="M 155 100 Q 200 60 245 100" stroke="#e91e63" stroke-width="3" fill="none" stroke-linecap="round" stroke-dasharray="5,3"/>
    <circle cx="95" cy="120" r="15" fill="#ff6b6b" opacity="0.7"/>
    <circle cx="80" cy="95" r="12" fill="#4ecdc4" opacity="0.7"/>
    <circle cx="305" cy="115" r="16" fill="#ffeb3b" opacity="0.7"/>
    <circle cx="320" cy="90" r="13" fill="#9b59b6" opacity="0.7"/>
  </g>
  <text x="200" y="225" font-family="Arial, sans-serif" font-size="16" fill="#e67e22" text-anchor="middle" font-weight="bold">Friendship Day</text>
</svg>
