<svg width="400" height="240" viewBox="0 0 400 240" xmlns="http://www.w3.org/2000/svg">
  <defs>
    <linearGradient id="wbg" x1="0" y1="0" x2="0" y2="1">
      <stop offset="0%" stop-color="#f8f8ff"/>
      <stop offset="100%" stop-color="#e6e6fa"/>
    </linearGradient>
    <linearGradient id="dress" x1="0" y1="0" x2="0" y2="1">
      <stop offset="0%" stop-color="#ffffff"/>
      <stop offset="100%" stop-color="#f0f0f0"/>
    </linearGradient>
    <linearGradient id="suit" x1="0" y1="0" x2="0" y2="1">
      <stop offset="0%" stop-color="#2c3e50"/>
      <stop offset="100%" stop-color="#1a252f"/>
    </linearGradient>
    <filter id="wshadow">
      <feGaussianBlur in="SourceAlpha" stdDeviation="4"/>
      <feOffset dx="0" dy="3"/>
      <feComponentTransfer><feFuncA type="linear" slope="0.3"/></feComponentTransfer>
      <feMerge><feMergeNode/><feMergeNode in="SourceGraphic"/></feMerge>
    </filter>
  </defs>
  <rect width="400" height="240" fill="url(#wbg)"/>
  <ellipse cx="200" cy="230" rx="160" ry="25" fill="rgba(0,0,0,0.05)"/>
  <g filter="url(#wshadow)">
    <ellipse cx="140" cy="80" rx="28" ry="30" fill="#fdeef4"/>
    <ellipse cx="260" cy="80" rx="28" ry="30" fill="#fdeef4"/>
    <path d="M 115 95 Q 110 140 120 180 L 115 200 L 165 200 L 160 180 Q 170 140 165 95" fill="url(#dress)"/>
    <path d="M 120 120 L 115 105 L 125 105 L 130 115" fill="rgba(255,255,255,0.5)"/>
    <path d="M 160 120 L 165 105 L 155 105 L 150 115" fill="rgba(255,255,255,0.5)"/>
    <path d="M 235 95 Q 230 140 240 180 L 235 200 L 285 200 L 280 180 Q 290 140 285 95" fill="url(#suit)"/>
    <rect x="245" y="105" width="20" height="40" fill="#ffffff" opacity="0.9"/>
    <circle cx="255" cy="120" r="3" fill="#2c3e50"/>
    <circle cx="255" cy="130" r="3" fill="#2c3e50"/>
    <circle cx="255" cy="140" r="3" fill="#2c3e50"/>
    <ellipse cx="140" cy="70" rx="4" ry="5" fill="#2c1810"/>
    <ellipse cx="260" cy="70" rx="4" ry="5" fill="#2c1810"/>
    <path d="M 133 78 Q 135 82 137 78" stroke="#d89fab" stroke-width="1.5" fill="none"/>
    <path d="M 253 78 Q 255 82 257 78" stroke="#d89fab" stroke-width="1.5" fill="none"/>
    <path d="M 165 95 L 180 85 L 220 85 L 235 95" stroke="#ff69b4" stroke-width="3" fill="none" stroke-linecap="round"/>
    <path d="M 180 85 Q 200 70 220 85" fill="#ffe4e1" stroke="#ff69b4" stroke-width="2"/>
    <circle cx="200" cy="75" r="8" fill="#ff69b4" opacity="0.7"/>
    <circle cx="190" cy="68" r="5" fill="#ff1493" opacity="0.6"/>
    <circle cx="210" cy="68" r="5" fill="#ff1493" opacity="0.6"/>
  </g>
  <text x="200" y="225" font-family="Arial, sans-serif" font-size="16" fill="#8b7d7b" text-anchor="middle" font-weight="600">Just Married</text>
</svg>
