<svg width="400" height="240" viewBox="0 0 400 240" xmlns="http://www.w3.org/2000/svg">
  <defs>
    <linearGradient id="ganbg" x1="0" y1="0" x2="0" y2="1">
      <stop offset="0%" stop-color="#fff9c4"/>
      <stop offset="50%" stop-color="#ffeb3b"/>
      <stop offset="100%" stop-color="#ff9800"/>
    </linearGradient>
    <linearGradient id="ganeskin" x1="0" y1="0" x2="0" y2="1">
      <stop offset="0%" stop-color="#ffd54f"/>
      <stop offset="100%" stop-color="#ffb74d"/>
    </linearGradient>
    <filter id="ganshadow">
      <feGaussianBlur in="SourceAlpha" stdDeviation="4"/>
      <feOffset dx="0" dy="3"/>
      <feComponentTransfer><feFuncA type="linear" slope="0.35"/></feComponentTransfer>
      <feMerge><feMergeNode/><feMergeNode in="SourceGraphic"/></feMerge>
    </filter>
  </defs>
  <rect width="400" height="240" fill="url(#ganbg)"/>
  <g filter="url(#ganshadow)">
    <ellipse cx="200" cy="130" rx="55" ry="50" fill="url(#ganeskin)"/>
    <circle cx="200" cy="85" r="40" fill="url(#ganeskin)"/>
    <ellipse cx="150" cy="85" rx="18" ry="28" fill="url(#ganeskin)"/>
    <ellipse cx="250" cy="85" rx="18" ry="28" fill="url(#ganeskin)"/>
    <path d="M 200 75 Q 185 95 178 110 L 190 115 Q 195 110 200 108 Q 205 110 210 115 L 222 110 Q 215 95 200 75" fill="#ff6f00"/>
    <circle cx="185" cy="80" r="6" fill="#3e2723"/>
    <circle cx="215" cy="80" r="6" fill="#3e2723"/>
    <path d="M 193 100 Q 200 103 207 100" stroke="#e65100" stroke-width="2" fill="none"/>
    <path d="M 165 155 Q 160 180 170 205 L 180 200" fill="#ff9800"/>
    <path d="M 235 155 Q 240 180 230 205 L 220 200" fill="#ff9800"/>
    <circle cx="200" cy="55" r="16" fill="#c62828">
      <animate attributeName="r" values="16;18;16" dur="2s" repeatCount="indefinite"/>
    </circle>
    <path d="M 195 48 L 200 38 L 205 48" fill="#ffeb3b"/>
    <path d="M 190 60 Q 195 68 200 70 Q 205 68 210 60" stroke="#c62828" stroke-width="2" fill="none"/>
    <rect x="180" y="170" width="40" height="35" fill="#8d6e63" opacity="0.3"/>
    <circle cx="100" cy="180" r="15" fill="#ff6b6b" opacity="0.7"/>
    <path d="M 93 175 Q 100 168 107 175" stroke="#c62828" stroke-width="2" fill="none"/>
    <circle cx="300" cy="170" r="15" fill="#ff6b6b" opacity="0.7"/>
    <path d="M 293 165 Q 300 158 307 165" stroke="#c62828" stroke-width="2" fill="none"/>
  </g>
</svg>
