<svg width="400" height="240" viewBox="0 0 400 240" xmlns="http://www.w3.org/2000/svg">
  <defs>
    <linearGradient id="holibg" x1="0" y1="0" x2="1" y2="1">
      <stop offset="0%" stop-color="#fff9c4"/>
      <stop offset="50%" stop-color="#ffeb3b"/>
      <stop offset="100%" stop-color="#ffc107"/>
    </linearGradient>
    <radialGradient id="powder1" cx="0.5" cy="0.5">
      <stop offset="0%" stop-color="#ff4081"/>
      <stop offset="100%" stop-color="#c2185b"/>
    </radialGradient>
    <radialGradient id="powder2" cx="0.5" cy="0.5">
      <stop offset="0%" stop-color="#ffeb3b"/>
      <stop offset="100%" stop-color="#f57c00"/>
    </radialGradient>
    <radialGradient id="powder3" cx="0.5" cy="0.5">
      <stop offset="0%" stop-color="#4caf50"/>
      <stop offset="100%" stop-color="#2e7d32"/>
    </radialGradient>
    <filter id="holishadow">
      <feGaussianBlur in="SourceAlpha" stdDeviation="4"/>
      <feOffset dx="0" dy="3"/>
      <feComponentTransfer><feFuncA type="linear" slope="0.25"/></feComponentTransfer>
      <feMerge><feMergeNode/><feMergeNode in="SourceGraphic"/></feMerge>
    </filter>
  </defs>
  <rect width="400" height="240" fill="url(#holibg)"/>
  <g filter="url(#holishadow)">
    <circle cx="180" cy="110" r="42" fill="url(#powder1)" opacity="0.85"/>
    <circle cx="180" cy="110" r="34" fill="#ff80ab" opacity="0.6"/>
    <circle cx="240" cy="95" r="45" fill="url(#powder2)" opacity="0.85"/>
    <circle cx="240" cy="95" r="36" fill="#ffeb3b" opacity="0.6"/>
    <circle cx="120" cy="140" r="38" fill="url(#powder3)" opacity="0.85"/>
    <circle cx="120" cy="140" r="30" fill="#81c784" opacity="0.6"/>
    <circle cx="280" cy="145" r="40" fill="#2196f3" opacity="0.7"/>
    <circle cx="280" cy="145" r="32" fill="#64b5f6" opacity="0.5"/>
    <g opacity="0.4">
      <circle cx="80" cy="70" r="15" fill="#ff4081"/>
      <circle cx="340" cy="160" r="18" fill="#ffeb3b"/>
      <circle cx="155" cy="200" r="12" fill="#4caf50"/>
      <circle cx="285" cy="220" r="14" fill="#2196f3"/>
    </g>
    <path d="M 100 190 L 140 170 L 180 185 L 160 220 Z" fill="#ff80ab" opacity="0.3"/>
    <path d="M 220 180 L 260 165 L 300 180 L 280 210 Z" fill="#ffeb3b" opacity="0.3"/>
    <path d="M 50 100 L 90 85 L 115 95 L 100 125 Z" fill="#81c784" opacity="0.3"/>
  </g>
</svg>
