<svg width="400" height="240" viewBox="0 0 400 240" xmlns="http://www.w3.org/2000/svg">
  <defs>
    <linearGradient id="rakbg" x1="0" y1="0" x2="1" y2="1">
      <stop offset="0%" stop-color="#fff3e0"/>
      <stop offset="50%" stop-color="#ffe0b2"/>
      <stop offset="100%" stop-color="#ffb74d"/>
    </linearGradient>
    <radialGradient id="rakthread" cx="0.5" cy="0.5">
      <stop offset="0%" stop-color="#ff9800"/>
      <stop offset="100%" stop-color="#ff6f00"/>
    </radialGradient>
    <filter id="rakshadow">
      <feGaussianBlur in="SourceAlpha" stdDeviation="3"/>
      <feOffset dx="0" dy="2"/>
      <feComponentTransfer><feFuncA type="linear" slope="0.35"/></feComponentTransfer>
      <feMerge><feMergeNode/><feMergeNode in="SourceGraphic"/></feMerge>
    </filter>
  </defs>
  <rect width="400" height="240" fill="url(#rakbg)"/>
  <g filter="url(#rakshadow)">
    <path d="M 100 120 Q 125 100 150 100 Q 175 100 200 120 Q 225 100 250 100 Q 275 100 300 120" stroke="url(#rakthread)" stroke-width="8" fill="none" stroke-linecap="round"/>
    <circle cx="200" cy="120" r="35" fill="#c62828"/>
    <circle cx="200" cy="120" r="28" fill="#ffeb3b"/>
    <circle cx="200" cy="120" r="20" fill="#ff9800"/>
    <circle cx="200" cy="120" r="12" fill="#ffd54f"/>
    <g opacity="0.8">
      <circle cx="190" cy="110" r="5" fill="#ff6b6b"/>
      <circle cx="210" cy="110" r="5" fill="#ff6b6b"/>
      <circle cx="190" cy="130" r="5" fill="#4caf50"/>
      <circle cx="210" cy="130" r="5" fill="#4caf50"/>
      <circle cx="185" cy="120" r="5" fill="#2196f3"/>
      <circle cx="215" cy="120" r="5" fill="#2196f3"/>
    </g>
    <path d="M 200 155 L 190 170 L 200 185 L 210 170 Z" fill="#ff9800" opacity="0.7"/>
    <path d="M 185 172 L 180 180 L 185 188" fill="#ffeb3b" opacity="0.6"/>
    <path d="M 215 172 L 220 180 L 215 188" fill="#ffeb3b" opacity="0.6"/>
    <circle cx="150" cy="100" r="12" fill="#ff6b6b" opacity="0.8"/>
    <circle cx="250" cy="100" r="12" fill="#4ecdc4" opacity="0.8"/>
    <path d="M 143 95 Q 150 88 157 95" stroke="#c62828" stroke-width="2" fill="none"/>
    <path d="M 243 95 Q 250 88 257 95" stroke="#00897b" stroke-width="2" fill="none"/>
  </g>
</svg>
