<svg width="400" height="240" viewBox="0 0 400 240" xmlns="http://www.w3.org/2000/svg">
  <defs>
    <linearGradient id="gfbg" x1="0" y1="0" x2="0" y2="1">
      <stop offset="0%" stop-color="#fce4ec"/>
      <stop offset="100%" stop-color="#f8bbd0"/>
    </linearGradient>
    <linearGradient id="gfdress" x1="0" y1="0" x2="0" y2="1">
      <stop offset="0%" stop-color="#ec407a"/>
      <stop offset="100%" stop-color="#c2185b"/>
    </linearGradient>
    <filter id="gfshadow">
      <feGaussianBlur in="SourceAlpha" stdDeviation="3"/>
      <feOffset dx="0" dy="2"/>
      <feComponentTransfer><feFuncA type="linear" slope="0.35"/></feComponentTransfer>
      <feMerge><feMergeNode/><feMergeNode in="SourceGraphic"/></feMerge>
    </filter>
  </defs>
  <rect width="400" height="240" fill="url(#gfbg)"/>
  <ellipse cx="200" cy="230" rx="130" ry="25" fill="rgba(0,0,0,0.06)"/>
  <g filter="url(#gfshadow)">
    <ellipse cx="200" cy="72" rx="40" ry="42" fill="#f4d4bc"/>
    <path d="M 165 58 Q 175 48 185 55 L 190 48 L 200 45 L 210 48 L 215 55 Q 225 48 235 58" fill="#5d4037" stroke="#3e2723" stroke-width="1.5"/>
    <path d="M 170 65 Q 180 70 190 65" fill="#5d4037"/>
    <path d="M 210 65 Q 220 70 230 65" fill="#5d4037"/>
    <ellipse cx="185" cy="68" rx="5" ry="6" fill="#2c1810"/>
    <ellipse cx="215" cy="68" rx="5" ry="6" fill="#2c1810"/>
    <path d="M 177 73 Q 180 75 183 73" stroke="#2c1810" stroke-width="1" fill="none"/>
    <path d="M 207 73 Q 210 75 213 73" stroke="#2c1810" stroke-width="1" fill="none"/>
    <path d="M 192 80 Q 200 84 208 80" stroke="#c9a985" stroke-width="2" fill="none" stroke-linecap="round"/>
    <circle cx="178" cy="82" r="7" fill="#ff8a80" opacity="0.6"/>
    <circle cx="222" cy="82" r="7" fill="#ff8a80" opacity="0.6"/>
    <path d="M 170 95 Q 160 140 165 175 L 160 200 L 240 200 L 235 175 Q 240 140 230 95" fill="url(#gfdress)"/>
    <ellipse cx="200" cy="115" rx="32" ry="28" fill="rgba(255,255,255,0.15)"/>
    <circle cx="310" cy="85" r="22" fill="#ff6b9d" opacity="0.8">
      <animate attributeName="r" values="22;26;22" dur="2s" repeatCount="indefinite"/>
    </circle>
    <path d="M 310 68 Q 295 85 310 98 Q 325 85 310 68" fill="#ff6b9d"/>
  </g>
  <path d="M 260 90 Q 280 85 290 95" stroke="#ff6b9d" stroke-width="2" fill="none" stroke-linecap="round"/>
</svg>
